<svg id="Capa_1" data-name="Capa 1" xmlns="http://www.w3.org/2000/svg" viewBox="0 0 306.32 295.05"><path d="M165.39,95.5l7.77,10.1s24.85-16.32,55.72,0l5.22-11.12S204.43,75.51,165.39,95.5Z" transform="translate(-45.53 -39.32)"/><path d="M208.5,60v7.23s11.32-1.7,10.59,8c-.19,3-1.43,7.21-10.11,9.2a86,86,0,0,1,26,5s12.8-4.09,11.06-18.92C246,70.63,245.59,50.87,208.5,60Z" transform="translate(-45.53 -39.32)"/><path d="M190,59.19v7.32s-11.7-2.13-11.25,7.68c.15,3,1.24,7.24,10.07,9.45,0,0-10.26,2.71-23.61,7.23,0,0-15.91-7.32-13.73-22.08C151.44,68.79,152.44,49.05,190,59.19Z" transform="translate(-45.53 -39.32)"/><path d="M193.05,58.27l.35,25.4s8.51-.4,11.31-.07V58.67l-5.61,7.61Z" transform="translate(-45.53 -39.32)"/><polygon points="153.58 22.51 162.97 10.72 153.58 0 143.76 10.71 153.58 22.51"/><polygon points="157.72 188.32 182.5 278.09 202.56 205.84 174.41 105.29 157.72 188.32"/><path d="M142.28,324.38h0Z" transform="translate(-45.53 -39.32)"/><path d="M132.65,314.75,170.89,110a15.4,15.4,0,0,1,3-2.48L90.61,154.16s11-4.35,12.48,1.88L64.48,306.43h-.06a9,9,0,0,1-.2.95l-1.58,6.08c-2,6.55-6,14.68-17.11,20.9l96.75-10C141.5,324.47,131.51,325.25,132.65,314.75Z" transform="translate(-45.53 -39.32)"/><path d="M220.69,318l-47-186.51-18,101.11,15.67,84.81c.25,4-.59,9.25-8.1,12l67.19-.92S224.07,326.32,220.69,318Z" transform="translate(-45.53 -39.32)"/><path d="M266,324.22h0Z" transform="translate(-45.53 -39.32)"/><path d="M266,324.22l85.86,10c-7.92-2.24-12.12-9.83-14.83-17L290.42,153.9c-1.6-12.41,12-6.84,12-6.84L214.12,108a16.62,16.62,0,0,1,4,3.36L274,312h0C276.77,325.18,266.76,324.29,266,324.22Z" transform="translate(-45.53 -39.32)"/></svg>