<?xml version="1.0" encoding="utf-8"?>
<!-- Generator: Adobe Illustrator 25.2.1, SVG Export Plug-In . SVG Version: 6.00 Build 0)  -->
<svg version="1.1" id="Capa_1" xmlns="http://www.w3.org/2000/svg" xmlns:xlink="http://www.w3.org/1999/xlink" x="0px" y="0px"
	 viewBox="0 0 395.96 414.01" style="enable-background:new 0 0 395.96 414.01;" xml:space="preserve">
<style type="text/css">
	.st0{fill:#FFFFFF;}
</style>
<g>
	<g>
		<path class="st0" d="M165.39,69.5l7.77,10.1c0,0,24.85-16.32,55.72,0l5.22-11.12C234.1,68.48,204.43,49.51,165.39,69.5z"/>
		<path class="st0" d="M208.5,34.02v7.23c0,0,11.32-1.7,10.59,8.05c-0.19,3.03-1.43,7.21-10.11,9.2c0,0,13,0.16,25.98,5.05
			c0,0,12.81-4.09,11.06-18.93C246.02,44.63,245.59,24.87,208.5,34.02z"/>
		<path class="st0" d="M189.96,33.19v7.32c0,0-11.7-2.13-11.25,7.68c0.14,3,1.24,7.24,10.06,9.45c0,0-10.26,2.71-23.61,7.23
			c0,0-15.9-7.32-13.72-22.08C151.44,42.79,152.44,23.05,189.96,33.19z"/>
		<path class="st0" d="M193.05,32.27l0.35,25.39c0,0,8.51-0.4,11.31-0.07V32.67l-5.61,7.61L193.05,32.27z"/>
		<polygon class="st0" points="199.11,35.83 208.5,24.04 199.11,13.32 189.29,24.03 		"/>
		<g>
			<polygon class="st0" points="203.24,201.64 228.02,291.41 248.09,219.16 219.94,118.61 			"/>
			<path class="st0" d="M142.28,298.38c0.02,0,0.03,0,0.03,0H142.28z"/>
			<path class="st0" d="M132.65,288.75l38.24-204.8c0.85-0.93,1.84-1.75,2.97-2.48l-83.25,46.68c0,0,11.01-4.34,12.48,1.89
				L64.48,280.43c-0.06,0-0.06,0.01-0.06,0.01c-0.04,0.32-0.12,0.63-0.2,0.96l-1.59,6.08c-1.98,6.56-5.98,14.68-17.11,20.9
				l96.75-9.99C141.5,298.47,131.51,299.25,132.65,288.75z"/>
			<path class="st0" d="M220.69,292.02l-46.96-186.52l-18.02,101.11l15.67,84.81c0.25,4.02-0.59,9.25-8.1,11.99l67.18-0.92
				C230.47,302.5,224.07,300.32,220.69,292.02z"/>
			<path class="st0" d="M265.99,298.22h-0.1C265.89,298.22,265.94,298.22,265.99,298.22z"/>
			<path class="st0" d="M265.99,298.22l85.85,9.98c-7.92-2.24-12.12-9.84-14.83-17.01l-46.6-163.29
				c-1.6-12.41,12.01-6.84,12.01-6.84L214.12,82c1.44,0.85,2.75,1.99,3.96,3.37l55.91,200.63l0,0
				C276.77,299.18,266.76,298.29,265.99,298.22z"/>
		</g>
	</g>
	<g>
		<g>
			<polygon class="st0" points="36.27,318.25 27.12,381.94 43.03,381.94 46.7,346.56 54.85,367.7 62.13,348.18 51.45,318.25 			"/>
			<polygon class="st0" points="75.8,318.25 57.3,373.42 59.87,379.37 69.75,379.37 80.55,346.2 85.67,381.17 101.51,381.17 
				90.8,318.25 			"/>
		</g>
		<g>
			<path class="st0" d="M130.5,332.14v-16.05c0,0-19.19-2.26-27.71,17.31c-11.35,26.04,7.12,50.47,27.71,49.39v-13.7
				c0,0-14.28,1.71-15.74-16.95C114.76,352.14,113.67,334.84,130.5,332.14z"/>
			<path class="st0" d="M133.99,332.14v-16.05c0,0,18.79-2.26,27.14,17.31c11.14,26.04-5.17,50.16-27.14,49.39v-13.7
				c0,0,13.98,1.71,15.42-16.95C149.41,352.14,150.48,334.84,133.99,332.14z"/>
		</g>
		<g>
			<path class="st0" d="M329.41,332.82v-16.04c0,0-19.19-2.26-27.71,17.31c-11.36,26.05,7.12,50.47,27.71,49.39v-13.69
				c0,0-14.28,1.71-15.75-16.95C313.66,352.82,312.56,335.53,329.41,332.82z"/>
			<path class="st0" d="M332.88,332.82v-16.04c0,0,18.8-2.26,27.15,17.31c11.11,26.05-5.18,50.16-27.15,49.39v-13.69
				c0,0,13.98,1.71,15.42-16.95C348.3,352.82,349.37,335.53,332.88,332.82z"/>
		</g>
		<path class="st0" d="M203.7,321.5l-5.49,13.34c0,0-9.7-7.22-15.01-2.52c0,0-6.65,5.41,3.84,9.55
			c28.84,11.38,25.06,40.07,0.55,41.12c0,0-15.65,1.25-23.93-4.52l6.55-14.06c0,0,6.22,5.86,12.41,5.5
			c8.79-0.15,13.74-8.94,2.96-13.07c0,0-7.84-3.65-13.88-8.31c0,0-7.39-6.06-5.33-17.28C166.36,331.24,173.51,305.64,203.7,321.5z"
			/>
		<g>
			<rect x="206.52" y="318.25" class="st0" width="11.81" height="14.61"/>
			<polygon class="st0" points="221.26,318.25 221.26,381.94 236.26,381.94 236.26,332.86 248.9,332.86 248.9,318.25 			"/>
		</g>
		<path class="st0" d="M253.1,318.25l0.32,63.69h15.37v-22.67l12.9,22.67h18.8l-16.74-24.57c0,0,11.8-3.24,12.48-16.23
			c0,0,2.2-14.92-9.88-20.68c0,0-3.99-2.49-15.24-2.21l0.2,13.35c0,0,7.77-0.28,8.77,6.3c0,0,2.13,11.49-11.64,10.5l-0.21-30.16
			H253.1z"/>
	</g>
</g>
</svg>
